<?xml version="1.0" encoding="utf-8"?>
<!-- Generator: Adobe Illustrator 23.0.3, SVG Export Plug-In . SVG Version: 6.00 Build 0)  -->
<svg version="1.1"
	 id="logosvg.com" inkscape:version="0.91 r13725" sodipodi:docname="Disney Logo.svg" xmlns:cc="http://creativecommons.org/ns#" xmlns:dc="http://purl.org/dc/elements/1.1/" xmlns:inkscape="http://www.inkscape.org/namespaces/inkscape" xmlns:rdf="http://www.w3.org/1999/02/22-rdf-syntax-ns#" xmlns:sodipodi="http://sodipodi.sourceforge.net/DTD/sodipodi-0.dtd" xmlns:svg="http://www.w3.org/2000/svg"
	 xmlns="http://www.w3.org/2000/svg" xmlns:xlink="http://www.w3.org/1999/xlink" x="0px" y="0px" viewBox="0 0 400 300"
	 style="enable-background:new 0 0 400 300;" xml:space="preserve">
<style type="text/css">
	.st0{fill:#231F20;}
</style>
<path id="black" transform="matrix(1.25,0,0,-1.25,300.37571,295.60773)" class="st0" d="M-43.4,137.3c0,0,0.8,1.2,1.4,2
	c1.2,1.6,3.3,3.8,4.9,5.2c0.5,0.4,1.1,0.9,1.1,0.9s-0.9-0.1-1.4-0.2c-1.2-0.2-3-1.4-3.9-2.2c-1.5-1.3-3.1-3.3-2.4-5.1
	C-43.6,137.7-43.4,137.3-43.4,137.3 M-35.2,135.1c2.3,0.2,4.5,0.8,6.6,2c2,1.1,4.9,3.3,4.6,5.9c-0.1,0.8-0.6,1.5-1.3,1.7
	c-0.9,0.4-1.4,0.3-2.5,0c-0.8-0.2-1.2-0.4-2-0.8c-2.3-1.3-5.5-4.2-7.3-6.5c-0.4-0.5-0.8-1.1-1.1-1.5c-0.2-0.3-0.4-0.5-0.3-0.5
	C-38.5,135-36.1,135-35.2,135.1 M-41.1,130.7c-0.2-0.3-0.5-0.9-0.8-1.3c-0.1-0.2-0.4-0.5-0.6-0.7c-0.6-0.4-1.1-0.5-1.7,0
	c-0.8,0.7-1.3,1.9-1.3,2.9c0,0.5,0.1,1,0,1.4c-0.2,0.7-0.8,1.4-1.2,2c-0.4,0.8-0.8,2.1-0.8,3c-0.2,2.7,1.3,5.2,3.1,7.1
	c1.9,2,4.3,3.6,6.9,4.7c2.5,1.1,6.2,1.8,8.9,0.8c0.9-0.3,2.1-1.1,2.8-1.9c0.1-0.2,0.2-0.4,0.4-0.4c0.1-0.1,0.4-0.1,0.7-0.2
	c0.9-0.2,2.1-0.8,2.6-1.3c1-0.9,1.6-1.7,1.9-3c0.5-2.5-0.9-5.2-2.5-6.9c-2.8-2.9-5.6-4.9-9.1-6.3c-1.6-0.6-4-1.2-5.8-1
	c-0.6,0-1.1,0.2-1.7,0.2c-0.3,0-1.3,0.3-1.4,0.4C-40.9,130.7-41.1,130.8-41.1,130.7 M-126.3,123.4c1.5,0.1,2.4,0.2,3.6,0.7
	c0.6,0.3,1.4,0.9,1,1.6c-0.2,0.5-1,0.6-1.5,0.6c-1.6-0.1-2.7-1.2-3.2-2.8C-126.4,123.5-126.4,123.4-126.3,123.4 M-119.8,127.2
	c0.9-1.1,1.3-2.4,1.4-3.7c0.1-1.4-0.4-2.8-1.1-3.8c-1.3-1.8-3.6-2.7-5.8-2.9c-0.3,0-2.1-0.1-2.6,0.1c-0.1,0-0.1,0.1-0.2,0.1
	c-0.1,0-0.4-1.3-0.4-1.7c-0.2-1.6-0.4-2.7-0.6-3.9c-0.1-1-0.3-2-0.3-3c-0.5-6-0.3-9,0.2-14.9c0-0.4,0.1-0.8,0-1
	c-0.1-0.7-0.6-1.2-1.3-1.4c-2.1-0.5-4.1,1.5-5.1,3.2c-2.4,3.9-1.6,11.7-0.9,15.6c0.3,1.6,1,5.2,1.5,6.5c0.3,0.7,0.7,2.1,0.7,2.1
	c0,0.1-1.1,0.5-2.1,0.9c-0.4,0.1-1.6,0.8-2.2,1.1c-1.1,0.7-1.9,1.3-2.6,2.1c-0.2,0.3-1,1.4-1.1,1.7c-0.6,1.4-0.7,2.6-0.1,4.1
	c0.1,0.4,0.9,2,1.4,2c0.7-0.1,0.6-1.3,0.8-1.9c0.1-0.2,0.3-0.6,0.4-0.8c1-1.2,4.5-2.5,5.9-3c0.2-0.1,2.4-0.7,2.7-0.6
	c0.1,0,0.5,0.8,0.8,1.2c0.1,0.3,0.3,0.4,0.5,0.6c1.3,1.4,3.3,2.8,5.3,3.2c0.9,0.2,2.6,0,3.4-0.5
	C-121.3,128.5-120.7,128.2-119.8,127.2 M-140.7,110.1c0.1,0,0.2,0,0.2-0.1c1-0.4,1-2.3,0.8-3.1c-0.7-2.2-2.8-4.5-4.5-5.7
	c-1-0.7-3.1-1.6-4.6-1.9c-2.3-0.4-4.4,0.2-5.6,2c-1.1,1.7-1.6,3.8-1.7,5.8c-0.3,5.7,1.5,13.9,3.7,18.7c0.3,0.6,1.7,3.6,3.1,4.1
	c1.3,0.5,1.9-1.1,2.1-2.3c0.2-1.5-0.3-3.5-0.7-5.1c-0.7-2.8-1.6-7.3-1.9-8.6c-0.2-1.3-0.8-4.2-0.6-5.7c0.1-0.8,0.3-1.2,0.8-1.1
	c0.3,0,4.1,1.8,6.1,2.5C-142.5,109.9-141.6,110.2-140.7,110.1 M-168.8,112.7c0,0,0.4,0,0.9,0c1.4,0,3.8,0.3,3.8,0.3
	s-0.3,2.1-0.5,3.4c-0.1,0.9-0.3,1.4-0.5,2.2c-0.1,0.3-0.3,1.2-0.5,1.6c0,0.1-0.1,0.1-0.1,0.1s-1.1-2.2-1.8-3.8
	c-0.5-1.2-0.8-2.1-1.1-2.9c-0.1-0.2-0.2-0.4-0.2-0.6C-168.8,112.9-168.8,112.7-168.8,112.7 M-176.4,112.5c0,0,0.7,1.5,1.2,2.7
	c0.6,1.2,3.4,6.9,4.5,8.5c1.3,1.8,3.7,5.2,3.8,5.3c0.1,0.4,0.1,1,0.5,1.6c0.3,0.4,0.9,0.6,1.6,0.6c0.7,0,1.5-0.5,1.8-1.1
	c0.6-1.1,1.7-4.3,1.9-5.1c1.2-4.2,2.6-12.1,3-16.2c0.1-1.1,0.5-6.6,0.5-7.9c0-0.9,0-2.3-0.5-3.1c-0.2-0.3-0.5-0.5-0.9-0.5
	c-0.5,0-1.4,0.7-1.8,1.1c-1.1,1.1-1.9,2.2-2.1,3.5c-0.2,1.2-0.5,4.5-0.5,4.5l-5-0.2l-2.8,0c0,0-0.3-0.6-0.5-1.2
	c-0.5-1.1-0.9-2.3-1.1-2.9c-0.4-1.3-1.1-3.9-1.2-4.3c-0.3-0.8-0.7-1.3-1.5-1.4c-0.9-0.1-1.5-0.2-2.2,0.2c-1.2,0.7-1.8,2.1-2,3.6
	c-0.4,2.5,0.7,4.6,1.7,7.5c0.4,1.3-0.2,1.7-1.2,3.3c-0.1,0.2-0.3,0.4-0.3,0.6c0,0.2,0.1,0.6,0.4,0.8c0.1,0.1,0.1,0.1,0.2,0.1
	L-176.4,112.5 M-204.7,128.8c0,0-0.1,1.6-0.2,2.5c-0.1,0.8-0.3,1.3-0.6,1.9c-0.4,0.6-0.7,1-1.3,1.1c-0.8,0.1-1.2-0.4-1.7-1.2
	c-0.6-1-1.3-2.9-1.6-4.1c-0.5-1.7-0.8-2.7-1.1-4.7c-0.5-3.2-1-8.5-0.4-12.2c0.1-0.6,0.3-1.6,0.3-1.6s0.8,0.9,1.3,1.5
	c0.2,0.3,1.4,2,1.5,2.1c0.2,0.3,0.7,1.2,0.8,1.4c0.1,0.2,0.9,1.9,1.1,2.4c0.3,0.8,0.7,2,1,3c0.7,2.2,0.6,3,1.1,5.5
	C-204.7,126.8-204.6,128.8-204.7,128.8C-204.7,128.8-204.7,128.8-204.7,128.8 M-210.1,105.4c0,0,0.3-0.5,0.5-0.9
	c1.3-2.2,3.4-3.5,6-3.6c2.6-0.1,6,1.4,7.9,2.7c5.5,3.8,8.3,10.6,9.9,17.2c1.8,7.7,1.9,15.8-0.3,23.2c-1.3,4.3-3.8,9.7-6.8,13
	c-0.9,1-2.3,2.3-2.7,2.8c-0.4,0.6-0.5,1,0.1,1.4c0.7,0.4,2.1-0.4,2.9-0.9c3.6-2.2,5.9-4.4,8.1-7.5c0.5-0.8,2.7-4.3,3.1-5.1
	c2.4-4.6,3.7-8.5,4.3-13.5c0.8-6.4,0.3-13.7-1.9-20.1c-1-2.8-2.5-5.7-4-8.2c-0.4-0.6-2.6-3.6-2.9-3.9c-0.8-0.8-2.7-2.5-3.6-3.2
	c-4.5-3.6-9.4-6-14.7-5.3c-2.9,0.4-5.3,1.3-7.7,3.2c-0.9,0.7-2.4,2.3-3,3.4c-0.4,0.7-0.9,1.6-1,1.6c-0.1,0-0.3-0.2-0.6-0.4
	c-0.2-0.2-1.3-0.7-1.9-0.9c-3.7-1.4-7.8-1-11.1,1.1c-2.4,1.6-4.5,4.6-5.4,7.3c-1.3,4-1.5,8.2-0.9,12.5c0.9,7.3,3.6,14.2,7.5,20.3
	c2.5,3.8,5.7,7.7,9.5,10.4c0.4,0.3,2.8,1.7,3.2,1.9c0.9,0.4,2,0.8,2.7,0.1c0.3-0.4,0.3-0.7,0.1-1.1c-0.4-0.8-1.4-1.8-2-2.4
	c-0.5-0.5-3.3-4-3.9-4.8c-0.6-0.9-3.5-5.1-3.9-5.8c-3.6-6.3-6.5-16.2-6.2-23.8c0.1-1.6,0.3-3.9,0.6-5.4c0.5-2,1.7-4.7,3.5-6
	c1.9-1.3,3.6-1.3,5.9-0.4c0.6,0.2,1.5,0.6,1.5,0.6s-0.7,1.7-1.1,3c-1.2,3.5-1.7,9.1-1.2,13c0.4,3.2,1.1,5.6,2.5,8.1
	c1.1,2,2.7,4,4.6,5.6c1.9,1.6,4.8,3,7.4,3c2.2,0.1,4.4-0.9,5.5-2.9c2-3.4,2.1-8.8,1.5-12.4c-0.8-5.4-3.6-10.4-7.6-13.9
	C-207.3,107.4-210.1,105.4-210.1,105.4 M-37.9,125.2c0.1,0,0.3-0.1,0.4-0.1c1.3-0.5,1.8-1.6,2.1-2.9c0.7-3,1-9.5,1.1-12.1
	c0.1-1.9,0.1-3.8,0.2-5.7c0.1-1.6,0.2-3.7-0.1-5.3c-0.1-0.5-0.5-1.2-1-1.5c-0.6-0.4-1.9-0.4-2.7-0.3c-1.8,0.4-2.4,1.6-2.7,3.4
	c-0.6,4.3-0.3,12.8,0,16.4c0.1,1.2,0.6,5,1.2,6.6C-39.2,124.3-38.7,125.4-37.9,125.2 M-94.4,118.7c0,0-2.7-0.2-4.6-0.4
	c-2.4-0.3-6.8-1-9.4-2c-0.8-0.3-2.3-0.9-2.5-1.7c-0.1-0.8,0.4-1.5,0.9-2.1c0.3-0.4,2.2-2.2,2.7-2.6c2.2-1.8,6.6-4.6,9.9-6
	c1.1-0.5,3-1.1,3-1.1s-0.1,5.3-0.1,10.5C-94.5,116-94.4,118.7-94.4,118.7 M-44.7,116.6c0.2-1.4-0.2-4.1-0.3-4.5
	c-0.1-0.8-0.7-2.7-0.8-2.9c-0.5-1.1-1-2.1-1.5-3c-0.9-1.6-3-4.1-4.3-5.2c-4.7-4-11.9-6.3-18.1-7.1c-4.2-0.5-9-0.4-13.5,0.4
	c-1.5,0.3-3.8,0.8-3.8,0.8s0-0.9-0.1-1.6c0-0.3-0.3-1.1-0.4-1.3c-0.3-0.7-0.9-1-1.6-1.2c-0.9-0.2-1.9-0.2-2.8,0.1
	c-1.4,0.6-1.9,1.9-2.2,3.5c-0.2,1.2-0.4,3.4-0.4,3.4s-1.1,0.5-1.9,0.9c-2.7,1.3-5.3,3-7.6,4.6c-0.6,0.5-3.3,2.7-3.9,3.3
	c-1.7,1.6-3.2,3.1-4.3,5.2c-0.9,1.6-1.1,3-0.5,4.6c0.9,2.3,4.3,4.1,6.5,5.1c1.7,0.7,6.9,2.4,9,2.8c1,0.1,2.6,0.4,2.7,0.5
	c0,0,0.1,0.1,0.1,0.1c0,0.1,0.1,2.4,0.1,3.2c0,0.8,0.6,6.3,0.8,7.4c0.1,0.6,0.6,3,1.1,3.6c0.3,0.4,0.9,0.4,1.3,0.1
	c2.5-1.5,3.2-6.9,3.4-9.6c0.1-1.7,0.2-4.2,0.2-4.2s2.8,0.1,4.6,0c1.7,0,3.6-0.3,5.3-0.6c2.3-0.4,6.7-1.3,9.2-2.6
	c2.1-1.1,4-2.8,4.7-4.7c0.6-1.7,0.5-2.9-0.4-4.5c-1-1.8-2.9-3.1-4.8-3.2c-0.6,0-2.7,0.3-3.4,0.8c-0.3,0.2-0.2,0.6-0.1,0.8
	c0.1,0.1,1.1,0.6,1.7,0.9c0.3,0.2,0.5,0.3,0.8,0.5c0.5,0.4,0.9,0.9,0.9,1.5c-0.1,0.7-0.8,1.2-1.6,1.5c-3.4,1.4-10.3,2.5-13.7,2.7
	c-1.3,0.1-3.2,0.1-3.2,0.1l0.4-18.4c0,0,1.5-0.3,2.7-0.5c0.7-0.1,3.6-0.4,4.4-0.4c5.9-0.2,12.6,0.4,18,3c2.4,1.1,4.6,2.5,6.2,4.4
	c2.2,2.5,3.3,6,3,9.5c-0.3,3.9-3.1,8.6-5.3,11.4c-5.8,7.5-15.8,13.6-24.6,17.3c-9,3.7-17.8,5.8-27.3,6.2c-2.5,0.1-7.8,0-10.5-0.8
	c-0.4-0.1-0.8-0.2-1.1-0.3c-0.3-0.1-0.7-0.3-0.9-0.4c-0.1-0.1-0.1-0.1-0.1-0.1s0.2-0.1,0.3-0.2c0.3-0.1,1.5-0.2,2.1-0.3
	c0.6-0.1,1.1-0.4,1.4-0.8c0.2-0.4,0.3-0.7,0-1c-0.6-0.8-2.9-0.6-3.9-0.5c-1.1,0.2-2.4,0.5-2.6,1.4c-0.3,1.1,0.2,2.1,0.8,3.1
	c1.1,2,2.7,3,5.1,3.6c3.3,0.9,7.5,1.6,10.7,1.7c7.1,0.3,13.8-1,20.7-3.1c3.9-1.2,9.1-3.2,12.9-5c2.7-1.3,7-3.7,9.4-5.3
	c0.8-0.5,5.2-3.7,5.9-4.3c1.4-1.2,3.3-2.9,4.7-4.2c2.6-2.6,5.9-6.6,7.5-9.8c0.4-0.8,0.7-1.5,1.2-2.4c0.2-0.3,0.9-2.1,1-2.6
	c0.1-0.5,0.3-1.3,0.3-1.3C-45,118.8-44.7,117.2-44.7,116.6L-44.7,116.6z M-14.1,115.3c0.1,0,0.2,0,0.3,0c2.2-0.3,4.3-0.7,5.9-1.4
	c1.5-0.7,2.4-1.5,3.2-3c1.2-2.3,1.3-5.5,0.2-7.9c-0.8-1.8-2.7-3.3-4.3-4.1c-1.7-0.8-3.4-1.2-5.4-1.5c-3.4-0.4-7.1,0.3-10.2,1.8
	c-1.8,0.9-4,2.4-5.2,4.4c-0.8,1.4-0.8,3.3,0.2,4.7c1.6,2.2,5,2.7,7.6,2.6c2-0.1,5.5-0.7,7.4-1.3c0.5-0.2,2.4-0.9,2.8-1.3
	c0.2-0.2,0.4-0.6,0.3-0.9c-0.4-1.3-3.6-2-4.5-2.1c-2.5-0.4-3.7,0.6-6.5,1.7c-0.7,0.3-1.6,0.6-2.3,0.6c-1.3,0.1-2.8-0.2-3-1.6
	c-0.1-0.7,0.7-1.4,1.3-1.7c1.5-0.6,2.7-0.9,4.2-0.9c4.3-0.1,9.2,0.6,12.8,3.2c0.5,0.3,1,0.9,1,1.5c0,0.1-0.1,0.8-0.3,0.8
	c0,0-0.1,0-0.1,0c-0.1,0-0.2,0.2-0.3,0.4c-0.3,0.3-1.3,0.8-1.5,0.8c-2.4,1-6.8,1.5-9.1,1.7c-2.4,0.2-6.2,0.5-7.1,0.7
	c-0.9,0.1-1.9,0.3-2.7,0.7c-0.8,0.4-1.6,1.2-1.8,2.1c-0.4,1.6,0.1,3.6,1,4.9c2.4,3.4,7.9,4.7,12.1,5.2c4,0.5,10.5,0.5,14.5-1.6
	c0.6-0.3,0.9-0.6,0.8-1.3c-0.3-1.2-1.2-2-2.3-2.4c-1.2-0.4-3.6-0.5-4.7-0.6c-4.8-0.3-10.5-0.1-15.1-1.4c-0.4-0.1-1-0.3-1.2-0.5
	c-0.7-0.8,1.3-1,1.8-1.1c0.1,0,0.2,0,0.3,0L-14.1,115.3 M0.8,97.5c-1.9,0.7-2.4,3.8-2.4,5.4c-0.3,5.1,1,12.2,2.8,17
	c0.5,1.4,1.2,3.6,2.7,3.5c1.1-0.1,1.8-0.9,2.4-1.7c1.5-2.1,3.5-5,4.8-7c1.5-2.2,2.9-4.5,4.3-6.6c0.2-0.2,0.3-0.5,0.5-0.6
	c0.3-0.2,0.5-0.2,0.6,0c0,0.1,0,2.7-0.1,3.2c-0.1,0.8-0.2,1.5-0.3,2.2c-0.3,2.1-0.9,5-1.4,6.9c-0.6,2.2-1.3,4.5-1.8,6.6
	c-0.2,0.7-0.3,1.4-0.3,2c0,1,0.6,1.5,1.6,1.1c2-0.7,4.6-4.9,5.3-6.4c0.3-0.5,1.3-3,1.5-3.7c0.8-2.4,1.3-4.7,1.5-7.4
	c0.2-2.6,0-6.3-1.1-8.9c-0.4-0.9-1.2-2.2-1.9-2.8c-1.1-1-3.2-1.8-4.7-0.9c-1.6,0.9-4.3,5.5-4.7,6.3c-1.5,2.7-4.2,7.9-4.6,8.5
	c-0.1,0.1-0.2,0.3-0.4,0.3c-0.2,0-0.2-0.3-0.3-0.5c-0.3-1.5-0.4-8.7-0.4-8.9c0-1.2-0.1-4.1-0.4-5.6c-0.2-0.9-0.5-1.7-1.3-2.1
	C2,97.1,1.5,97.2,0.8,97.5 M27.3,97.9c-0.2,0.2-0.5,0.5-0.8,0.8c0,0-0.7,1.1-0.9,1.4c-0.1,0.3-0.2,0.5-0.3,0.7
	c-0.6,1.6-0.6,3.2-0.3,5c0.3,1.6,0.6,1.7,1.5,3.9c0.1,0.1,0.1,0.2,0.1,0.4c0,0.3-0.5,2.4-0.5,3c0,1,0.8,1.7,2.1,1.9
	c0.1,0,0.2,0,0.3,0c0.5,0.1,0.9,1.1,1.1,1.9c0.4,1.1,1,2.9,1,2.9s-1.7,0.4-2.5,0.7c-1,0.4-1.7,0.9-2.2,1.8c-0.5,1.1-0.2,1.7,0.9,2
	c0.4,0.1,3.6,0.8,4.7,0.9c1.3,0.2,2.5,0.3,3.7,0.5c1.1,0.1,5.9,0.7,7.4,0.6c2.3-0.1,3.9-1,5.2-3c0.7-1.1,1.2-2.3,0.1-3
	c-1.7-1-7.2-1.1-8.2-1.1c-1.6,0-3.8,0-3.8,0l-1.1-3.8c0,0,4,0,6.2,0.1c0.5,0,1.1,0,1.4-0.1c1.1-0.3,1.5-1.1,1.6-2.4
	c0.1-1.5-0.2-2.1-1.4-2.3c-0.6-0.1-7.4-0.1-8.3-0.2c-0.6-0.1-1.2-0.2-1.2-0.2s-0.5-1.3-0.9-2.6c-0.4-1.3-0.8-2.7-0.8-2.7
	s0.3,0,0.6,0c0.5,0,1,0.1,1.3,0.1c2.1,0.4,5.2,0.8,7.7,1.2c1.4,0.2,2,0.3,2.8-0.6c0.6-0.8,0.9-1.5,1-2.4c0-0.9-0.7-1.5-1.5-2.2
	c-2.7-2-7.2-4.3-10.7-4.6c-1.6-0.2-2,0-3.3,0.4C29,97,28,97.4,28,97.5C28,97.5,27.5,97.8,27.3,97.9L27.3,97.9z M70.3,116.8
	c-1.8-1.5-4-4.5-5.1-6c-1.4-2.1-2.8-4.4-4.1-6.2c-0.3-0.4-1.1-1.9-1.1-1.9c0.1-0.1,0.9-0.1,1.8,0.1c1.8,0.3,4.4,1.6,5.7,2.7
	c2,1.6,3.5,3.9,4.1,6.5c0.3,1.2,0.4,3.7-0.4,4.8C71,116.9,70.6,117.1,70.3,116.8 M56.4,95.3c0,0-0.6-1.6-1-2.9
	c-0.7-2.2-2.2-8.1-2.6-10c-0.5-2.7-2.1-9.9-2.2-10.1c-0.1-0.2-0.2-0.3-0.4-0.4c-0.6-0.4-0.9-0.2-1.6,0.2c-1,0.5-1.9,1.1-2.6,2
	c-1.5,1.9-1.1,5.6-0.8,7.7c1,7.5,2.1,10.8,4.9,18.3c0,0.1,0,0.2,0,0.3c-0.9,1.9-1.4,4.2-1.4,6c0,5.9,3.4,11.7,7.1,16.3
	c0.3,0.4,2.1,2.6,3,2.5c0.8,0,1-1,0.9-1.8c-0.4-2.7-2.3-5.5-3.6-7.7c-1.5-2.5-1.8-3.6-2.5-5.9c-0.1-0.4-0.4-2.1-0.4-2.3
	c0-0.6,0.2-1.4,0.2-1.4s2.4,3.3,4,5.4c0.9,1.1,1.5,1.9,2.2,2.7c0.7,0.8,3.5,3.7,4.3,4.5c1.7,1.6,2.4,2.3,4.3,3.2
	c1.4,0.7,2.7,0.9,4.2,0c2.2-1.5,3.2-4.6,3.5-7.1c0.3-3-0.3-6.4-1.6-9c-1.6-3.1-3.7-5.3-6.7-7.2c-3-2-6.5-3.3-9.9-3.3
	C56.9,95.3,56.4,95.3,56.4,95.3"/>
</svg>
